# AST/ASF file generated using VICON BodyLanguage
# -----------------------------------------------
:version 1.10
:name VICON
:units
  mass 1.0
  length 0.45
  angle deg
:documentation
   .ast/.asf automatically generated from VICON data using
   VICON BodyBuilder and BodyLanguage model FoxedUp or BRILLIANT.MOD
:root
   order TX TY TZ RX RY RZ
   axis XYZ
   position 0 0 0  
   orientation 0 0 0 
:bonedata
  begin
     id 1 
     name lhipjoint
     direction 0.693937 -0.600361 0.397515 
     length 2.37164 
     axis 0 0 0  XYZ
  end
  begin
     id 2 
     name lfemur
     direction 0.34202 -0.939693 0  
     length 6.18497  
     axis 0 0 20  XYZ
    dof rx ry rz
    limits (-160.0 20.0)
           (-70.0 70.0)
           (-60.0 70.0)
  end
  begin
     id 3 
     name ltibia
     direction 0.34202 -0.939693 0   
     length 6.91601   
     axis 0 0 20   XYZ
    dof rx
    limits (-10.0 170.0)
  end
  begin
     id 4 
     name lfoot
     direction 0.0978718 -0.2689 0.958182   
     length 1.81453   
     axis -90 7.62852e-016 20   XYZ
    dof rx rz
    limits (-45.0 90.0)
           (-70.0 20.0)
  end
  begin
     id 5 
     name ltoes
     direction 1.53569e-011 -4.21951e-011 1   
     length 0.912052   
     axis -90 7.62852e-016 20   XYZ
    dof rx
    limits (-90.0 20.0)
  end
  begin
     id 6 
     name rhipjoint
     direction -0.643996 -0.637876 0.422354   
     length 2.23216  
     axis 0 0 0  XYZ 
  end
  begin
     id 7 
     name rfemur
     direction -0.34202 -0.939693 0   
     length 6.15404   
     axis 0 0 -20   XYZ
    dof rx ry rz
    limits (-160.0 20.0)
           (-70.0 70.0)
           (-70.0 60.0)
  end
  begin
     id 8 
     name rtibia
     direction -0.34202 -0.939693 0   
     length 6.86744   
     axis 0 0 -20   XYZ
    dof rx
    limits (-10.0 170.0)
 end
 begin
     id 9 
     name rfoot
     direction -0.118701 -0.326127 0.937844   
     length 1.9243  
     axis -90 -7.62852e-016 -20   XYZ
    dof rx rz
    limits (-45.0 90.0)
           (-20.0 70.0)
  end
  begin
     id 10 
     name rtoes
     direction -1.5356e-011 -4.2181e-011 1   
     length 0.958865   
     axis -90 -7.62852e-016 -20   XYZ
    dof rx
    limits (-90.0 20.0)
  end
  begin
     id 11 
     name lowerback
     direction 0.0310826 0.968686 -0.246334   
     length 2.00021   
     axis 0 0 0   XYZ
    dof rx ry rz
    limits (-20.0 45.0)
           (-30.0 30.0)
           (-30.0 30.0)
  end
  begin
     id 12 
     name upperback
     direction -0.0152834 0.999474 -0.0286152   
     length 2.03728   
     axis 0 0 0   XYZ
    dof rx ry rz
    limits (-20.0 45.0)
           (-30.0 30.0)
           (-30.0 30.0)
  end
  begin
     id 13 
     name thorax
     direction -0.0323701 0.996236 0.0804149   
     length 2.16   
     axis 0 0 0   XYZ
    dof rx ry rz
    limits (-20.0 45.0)
           (-30.0 30.0)
           (-30.0 30.0)
  end
  begin
     id 14 
     name lowerneck
     direction 0.0307935 0.982251 0.185027   
     length 1.43558   
     axis 0 0 0   XYZ
    dof rx ry rz
    limits (-20.0 45.0)
           (-30.0 30.0)
           (-30.0 30.0)
  end
  begin
     id 15 
     name upperneck
     direction -0.0927153 0.994775 0.0427454   
     length 1.44603   
     axis 0 0 0   XYZ
    dof rx ry rz
    limits (-20.0 45.0)
           (-30.0 30.0)
           (-30.0 30.0)
  end
  begin
     id 16
     name head
     direction -0.0341265 0.999406 -0.00472033  
     length 1.45931  
     axis 0 0 0   XYZ
    dof rx ry rz
    limits (-20.0 45.0)
           (-30.0 30.0)
           (-30.0 30.0)
  end
  begin
     id 17 
     name lclavicle
     direction 0.820755 0.555306 -0.134151  
     length 2.66075  
     axis 0 0 0   XYZ
    dof ry rz
    limits (-20.0 10.0)
           (0.0 20.0)
  end
  begin
     id 18 
     name lhumerus
     direction 1 -4.48971e-011 5.24853e-027   
     length 5.0546   
     axis -180 -30 -90   XYZ
    dof rx ry rz
    limits (-60.0 90.0)
           (-90.0 90.0)
           (-90.0 90.0)
  end
  begin
     id 19
     name lradius
     direction 1 -4.48971e-011 2.76575e-028   
     length 3.39013   
     axis -180 -30 -90   XYZ
    dof rx
    limits (-10.0 170.0)
  end
  begin
     id 20
     name lwrist
     direction 1 -4.48939e-011 -2.27826e-027   
     length 1.69507   
     axis 2.17013e-015 90 90   XYZ
    dof ry
    limits (-180.0 0.0)
 end
  begin
     id 21 
     name lhand
     direction 1 -4.49009e-011 -4.55652e-027   
     length 0.572425   
     axis 2.90745e-015 90 90   XYZ
    dof rx rz
    limits (-90.0 90.0)
           (-45.0 45.0)
  end
  begin
     id 22 
     name lfingers
     direction 1 -4.48955e-011 -9.11303e-027   
     length 0.461504   
     axis 5.81489e-015 90 90   XYZ
    dof rx
    limits (0.0 90.0)
  end
  begin
     id 23
     name lthumb
     direction 0.707107 -6.34929e-011 0.707107   
     length 0.66263   
     axis -90 45 2.85299e-015   XYZ
    dof rx rz
    limits (-45.0 45.0)
           (-45.0 45.0)
  end
  begin
     id 24 
     name rclavicle
     direction -0.754477 0.632921 -0.173712   
     length 2.73081  
     axis 0 0 0   XYZ 
    dof ry rz
    limits (-10.0 20.0)
           (-20.0 0.0)
  end
  begin
     id 25 
     name rhumerus
     direction -1 -4.48969e-011 5.1496e-027  
     length 5.0701   
     axis -180 30 90   XYZ
    dof rx ry rz
    limits (-90.0 60.0)
           (-90.0 90.0)
           (-90.0 90.0)
  end
  begin
     id 26 
     name rradius
     direction -1 -4.48967e-011 -7.15624e-028   
     length 3.14957   
     axis -180 30 90   XYZ
    dof rx
    limits (-10.0 170.0)
  end
  begin
     id 27 
     name rwrist
     direction -1 -4.48938e-011 -2.27826e-027   
     length 1.57479   
     axis 2.17013e-015 -90 -90   XYZ
    dof ry
    limits (-180.0 0.0)
  end
  begin
     id 28
     name rhand
     direction -1 -4.49008e-011 -4.55652e-027   
     length 0.718191   
     axis 2.90745e-015 -90 -90   XYZ
    dof rx rz
    limits (-90.0 90.0)
           (-45.0 45.0)
  end
  begin
     id 29
     name rfingers
     direction -1 -4.48953e-011 -9.11303e-027   
     length 0.579024   
     axis 5.81489e-015 -90 -90   XYZ
    dof rx
    limits (0.0 90.0)
  end
  begin
     id 30
     name rthumb
     direction -0.707107 -6.34937e-011 0.707107   
     length 0.831366   
     axis -90 -45 -2.85299e-015   XYZ
    dof rx rz
    limits (-45.0 45.0)
           (-45.0 45.0)
  end
:hierarchy
  begin
    root lhipjoint rhipjoint lowerback
    lhipjoint lfemur
    lfemur ltibia
    ltibia lfoot
    lfoot ltoes
    rhipjoint rfemur
    rfemur rtibia
    rtibia rfoot
    rfoot rtoes
    lowerback upperback
    upperback thorax
    thorax lowerneck lclavicle rclavicle
    lowerneck upperneck
    upperneck head
    lclavicle lhumerus
    lhumerus lradius
    lradius lwrist
    lwrist lhand lthumb
    lhand lfingers
    rclavicle rhumerus
    rhumerus rradius
    rradius rwrist
    rwrist rhand rthumb
    rhand rfingers
  end

#!OML:ASF H:\Male1\Project 1\Capture day 1\Session 1\Male1.ASF
:FULLY-SPECIFIED
:DEGREES
63
root 4.966 15.4706 2.06665 176.725 -29.1066 -178.93
lowerback 6.38608 1.42304 -1.19479
upperback 4.21437 1.59149 -1.36004
thorax 0.76605 0.685641 -0.817707
lowerneck -2.91354 2.20728 6.02722
upperneck 5.49068 2.63913 -1.04504
head 2.35232 1.38671 -1.29633
rclavicle 2.28602e-015 2.46493e-014
rhumerus -35.2998 22.9909 -95.6116
rradius 72.1987
rwrist -28.5232
rhand -26.3616 2.47425
rfingers 7.12502
rthumb 0.196475 -27.5054
lclavicle 2.28602e-015 2.46493e-014
lhumerus -40.0637 -17.3802 90.3341
lradius 78.7867
lwrist 18.0586
lhand -24.2083 21.2696
lfingers 7.12502
lthumb 2.27616 51.2372
rfemur -3.38361 13.416 22.3854
rtibia 22.7246
rfoot -26.5427 -33.4371
rtoes -19.4079
lfemur -2.31976 -16.7463 -18.9052
ltibia 21.7499
lfoot -18.4786 24.7023
ltoes -12.1321
64
root 4.99253 15.465 2.08786 176.498 -29.6299 -178.745
lowerback 6.77895 1.29387 -1.12362
upperback 4.30214 1.40435 -1.34244
thorax 0.639444 0.588398 -0.836171
lowerneck -2.2674 2.27709 5.97106
upperneck 5.10032 2.77116 -0.900784
head 2.1064 1.44824 -1.2397
rclavicle -2.93207e-014 2.06736e-014
rhumerus -34.655 23.5628 -95.5832
rradius 76.5663
rwrist -28.6795
rhand -27.2203 3.56269
rfingers 7.12502
rthumb -0.632844 -26.4161
lclavicle -2.93207e-014 2.06736e-014
lhumerus -38.7475 -18.4998 90.2473
lradius 83.3011
lwrist 18.7526
lhand -26.0228 21.331
lfingers 7.12502
lthumb 0.523708 51.3101
rfemur -3.34198 12.8804 22.5739
rtibia 22.7488
rfoot -26.5219 -33.4141
rtoes -19.6351
lfemur -2.69067 -16.5284 -18.5757
ltibia 22.1563
lfoot -18.1019 24.0978
ltoes -12.8305
65
root 5.00384 15.4655 2.1024 176.372 -29.6955 -178.489
lowerback 6.83556 1.30217 -0.849259
upperback 4.37236 1.42528 -1.33664
thorax 0.687604 0.601917 -0.985661
lowerneck -1.59521 2.33155 5.9935
upperneck 4.74539 2.88785 -0.881651
head 1.87409 1.501 -1.23941
rclavicle -1.09332e-015 7.95139e-015
rhumerus -33.7589 24.0765 -95.4757
rradius 80.9604
rwrist -28.7839
rhand -27.7079 4.16426
rfingers 7.12502
rthumb -1.1038 -25.8126
lclavicle -1.09332e-015 7.95139e-015
lhumerus -37.2555 -19.4932 90.1749
lradius 87.9474
lwrist 19.2936
lhand -26.9475 21.3945
lfingers 7.12502
lthumb -0.369396 51.374
rfemur -3.47471 12.4362 22.7424
rtibia 22.7916
rfoot -26.1279 -33.2232
rtoes -21.0829
lfemur -2.99822 -16.374 -18.2539
ltibia 22.5017
lfoot -18.1858 23.7898
ltoes -12.2597
66
root 5.01483 15.4638 2.12059 176.283 -29.9002 -178.273
lowerback 6.93544 1.19187 -0.688698
upperback 4.42274 1.28293 -1.28819
thorax 0.685398 0.531825 -1.0186
lowerneck -0.967392 2.43753 5.93043
upperneck 4.47987 3.07212 -0.870884
head 1.68182 1.58709 -1.22623
rclavicle -2.57426e-014 1.19271e-014
rhumerus -32.5836 24.8528 -95.331
rradius 85.3008
rwrist -28.6793
rhand -28.2496 5.77196
rfingers 7.12502
rthumb -1.62702 -24.2016
lclavicle -2.57426e-014 1.19271e-014
lhumerus -35.399 -20.1836 89.9587
lradius 92.5041
lwrist 19.5695
lhand -27.5906 21.0655
lfingers 7.12502
lthumb -0.990542 51.043
rfemur -3.67394 12.1957 22.8962
rtibia 22.9382
rfoot -26.1009 -33.184
rtoes -19.7734
lfemur -3.26601 -16.3969 -17.9759
ltibia 22.6493
lfoot -18.194 23.519
ltoes -11.7444
67
root 5.02109 15.4632 2.13049 176.487 -30.164 -178.551
lowerback 6.75285 1.09231 -0.890124
upperback 4.5484 1.1353 -1.39717
thorax 0.912422 0.451054 -1.00489
lowerneck -0.350014 2.54388 5.78066
upperneck 4.17246 3.25117 -0.719306
head 1.47423 1.67052 -1.15472
rclavicle 3.38928e-014 -3.97569e-014
rhumerus -31.1145 25.6631 -95.1304
rradius 89.6905
rwrist -28.3267
rhand -28.8014 6.55477
rfingers 7.12502
rthumb -2.15988 -23.414
lclavicle 3.38928e-014 -3.97569e-014
lhumerus -33.0955 -21.1054 89.5177
lradius 96.8787
lwrist 19.4778
lhand -27.5935 21.5955
lfingers 7.12502
lthumb -0.993284 51.5729
rfemur -3.85129 11.884 22.5641
rtibia 23.0672
rfoot -26.1338 -33.0433
rtoes -19.2622
lfemur -3.4785 -16.4493 -18.1947
ltibia 22.7068
lfoot -18.0173 23.3913
ltoes -12.0848
68
root 5.0222 15.4601 2.12981 176.548 -30.1657 -179.067
lowerback 6.60462 1.23386 -1.19708
upperback 4.78825 1.29271 -1.56032
thorax 1.24114 0.514563 -1.0056
lowerneck 0.383239 2.51221 5.49824
upperneck 3.73803 3.25349 -0.483317
head 1.1976 1.66278 -1.03984
rclavicle 2.93207e-014 1.59028e-014
rhumerus -29.3279 26.1264 -94.7335
rradius 93.9841
rwrist -27.8657
rhand -29.376 7.06668
rfingers 7.12502
rthumb -2.71487 -22.8958
lclavicle 2.93207e-014 1.59028e-014
lhumerus -30.3461 -22.4713 89.0597
lradius 100.972
lwrist 19.1229
lhand -28.3985 21.1639
lfingers 7.12502
lthumb -1.77081 51.1363
rfemur -3.67451 11.5292 22.0604
rtibia 23.1599
rfoot -25.8885 -32.7917
rtoes -19.7348
lfemur -3.24374 -16.4134 -18.7753
ltibia 22.7852
lfoot -18.0278 23.4277
ltoes -12.3047
69
root 5.0277 15.459 2.13309 176.414 -30.0443 -179.03
lowerback 6.56526 1.43896 -1.05414
upperback 4.89108 1.56827 -1.53613
thorax 1.37525 0.652214 -1.07381
lowerneck 1.27877 2.44774 5.12034
upperneck 3.26968 3.21707 -0.205906
head 0.883293 1.63304 -0.899825
rclavicle 1.85864e-014 -4.6118e-014
rhumerus -27.3197 26.4251 -94.3035
rradius 98.003
rwrist -27.1082
rhand -29.9481 7.55833
rfingers 7.12502
rthumb -3.26734 -22.3964
lclavicle 1.85864e-014 -4.6118e-014
lhumerus -27.3885 -23.8358 88.7456
lradius 104.8
lwrist 18.6867
lhand -30.0162 19.4629
lfingers 7.12502
lthumb -3.33306 49.4166
rfemur -3.63871 11.3729 22.0943
rtibia 23.2394
rfoot -25.6254 -32.6721
rtoes -20.2328
lfemur -3.13382 -16.3254 -18.7677
ltibia 22.8525
lfoot -18.1583 23.3936
ltoes -11.6096
